# xmcd
#
# Track frame offsets:
#	150
#	7370
#	23394
#	42157
#	64612
#
# Disc length: 1213 seconds
#
# Revision: 0
# Processed by: cddbd v1.4PL0 Copyright (c) Steve Scherf et al.
# Submitted via: EasyCDDAExtractor 4.5.0.1
#
DISCID=3404bb05
DTITLE=김소희 - 심청가 완창 4_4
DYEAR=1995
DGENRE=country
TTITLE0=관장과 만나는 대목
TTITLE1=방아타령 대목
TTITLE2=맹인잔치 참례대목
TTITLE3=부녀 상봉 눈뜨는 대목
TTITLE4=심봉사 기뻐하는 모습 대미
EXTD=
EXTT0=
EXTT1=
EXTT2=
EXTT3=
EXTT4=
PLAYORDER=
